<?xml version="1.0" encoding="UTF-8"?>
<svg width="16px" height="15px" viewBox="0 0 16 15" version="1.1" xmlns="http://www.w3.org/2000/svg" xmlns:xlink="http://www.w3.org/1999/xlink">
    <title>icon/导航菜单/病毒文件夹</title>
    <g id="控件" stroke="none" stroke-width="1" fill="none" fill-rule="evenodd">
        <g id="iconfont" transform="translate(-512.000000, -304.000000)" fill="#505052">
            <g id="导航菜单图标" transform="translate(42.000000, 229.000000)">
                <g id="编组" transform="translate(468.000000, 72.000000)">
                    <g id="icon_virus_mail" transform="translate(2.000000, 3.000000)">
                        <path d="M8.8333,1.46965 C8.5352,1.00655 7.95141,0.86715 7.49426,1.1383 C7.33735,1.23136 7.20505,1.36768 7.11297,1.53494 L1.14122,12.3824 L1.10353,12.4561 C0.86413,12.9699 1.05273,13.5869 1.51977,13.8632 C1.67248,13.9536 1.84385,14.0003 2.01716,14.0003 L13.9749,14.0003 L14.0509,13.998 C14.5655,13.9621 14.9998,13.5113 14.9998,12.9275 C14.9998,12.7373 14.9518,12.5512 14.8617,12.3881 L8.8753,1.54063 L8.8333,1.46965 Z M6.98412,0.27821 C7.92363,-0.27905 9.1045,0.0309 9.6813,0.93962 L9.6854,0.94611 L9.6894,0.95272 L9.7396,1.03752 L9.7435,1.04409 L9.7472,1.05078 L15.7373,11.9049 C15.9097,12.2174 15.9998,12.5698 15.9998,12.9275 C15.9998,14.0141 15.1783,14.9297 14.1062,14.9965 L14.0984,14.997 L14.0906,14.9972 L13.9982,15.0001 L13.9904,15.0003 L13.9827,15.0003 L2.01716,15.0003 C1.66298,15.0003 1.31597,14.9046 1.01055,14.7238 C0.08005,14.1733 -0.2538,12.986 0.20266,12.0219 L0.20593,12.015 L0.20941,12.0082 L0.25438,11.9203 L0.25785,11.9135 L0.26152,11.9068 L6.23695,1.05267 C6.41342,0.73212 6.67077,0.46406 6.98412,0.27821 Z" id="形状"></path>
                        <path d="M7.07538,4.99728 C7.03451,4.45933 7.45998,4.00031 7.99948,4.00031 C8.5391,4.00031 8.9646,4.45951 8.9236,4.99756 L8.5832,9.4588 C8.5599,9.7643 8.3052,10.0003 7.99879,10.0003 C7.6923,10.0003 7.43756,9.7642 7.41434,9.4586 L7.07538,4.99728 Z" id="路径"></path>
                        <circle id="椭圆形" fill-rule="nonzero" cx="7.99963" cy="12.0003" r="1"></circle>
                    </g>
                </g>
            </g>
        </g>
    </g>
</svg>