<?xml version="1.0" standalone="no"?><!DOCTYPE svg PUBLIC "-//W3C//DTD SVG 1.1//EN" "http://www.w3.org/Graphics/SVG/1.1/DTD/svg11.dtd"><svg t="1718686076547" class="icon" viewBox="0 0 1026 1024" version="1.1" xmlns="http://www.w3.org/2000/svg" p-id="4281" xmlns:xlink="http://www.w3.org/1999/xlink" width="256.5" height="256"><path d="M960.419 290.779c4.622-36.57-9.396-71.54-25.816-102.027L802.586 329.839 694.868 228.832 825.217 89.528c-27.188-11.497-57.7-23.889-88.622-17.93-125.306 24.148-223.824 98.132-223.824 219.18 0 47.57 15.481 91.596 41.77 127.522l-9.975-9.938s-22.359 20.132-57.676 52.049L269.442 239.699l-19.039-84.98L131.68 95.747l-52.008 54.486 54.175 119.187 89.47 12.074 217.317 220.763C324.62 607.301 143.546 772.033 70.072 843.074c-27.863 26.932 82.171 136.34 109.902 109.277 75.317-73.5 235.866-254.257 338.428-371.093l75.865 77.069s-36.446 43.048-30.648 58.51C590.552 788.66 809.006 959.44 809.006 959.44l148.598-147.67S784.967 597.96 712.216 571.026c-19.874-7.357-71.513 45.508-71.513 45.508L559.6 534.213c31.723-36.314 51.69-59.378 51.69-59.378l-8.034-8.005c37.245 27.095 83.378 43.132 133.341 43.132 123.613-0.002 208.96-101.6 223.822-219.183zM155.208 901.885c-17.442 0-31.577-14.136-31.577-31.577 0-17.44 14.134-31.578 31.577-31.578s31.577 14.138 31.577 31.578c0 17.44-14.135 31.577-31.577 31.577z" p-id="4282" fill="#ffffff"></path></svg>